# xmcd
#
# Track frame offsets: 
#        183
#        43333
#        64633
#        87858
#        135483
#        183483
#        227133
#        247983
#
# Disc length: 3847 seconds
#
# Revision: 4
# Processed by: cddbd v1.5.2PL0 Copyright (c) Steve Scherf et al.
# Submitted via: ExactAudioCopy v0.99pb5
#
DISCID=660f0508
DTITLE=Various Artist - Jazz. Be Bop To Electric CD2
DYEAR=1993
DGENRE=Jazz
TTITLE0=Dexter Gordon - In Your Own Sweet Way
TTITLE1=Bill Evans - Autumn Leaves
TTITLE2=Wes Montgomery - Twisted Blues
TTITLE3=Sonny Rollins - All The Things You Are
TTITLE4=Gato Barbieri - Togetherness
TTITLE5=Keith Jarrett - Yesternow
TTITLE6=Herbie Hancock - Night Walker
TTITLE7=Miles Davis - Walkin'
EXTD=YEAR: 1990
EXTT0=
EXTT1=
EXTT2=
EXTT3=
EXTT4=
EXTT5=
EXTT6=
EXTT7=
PLAYORDER=
